<svg width="22" height="17" viewBox="0 0 22 17" fill="none" xmlns="http://www.w3.org/2000/svg">
<path d="M10.949 11.0165C7.49903 11.0165 4.58807 11.5803 4.58807 13.756C4.58807 15.9327 7.51783 16.4766 10.949 16.4766C14.399 16.4766 17.31 15.9129 17.31 13.7371C17.31 11.5605 14.3802 11.0165 10.949 11.0165" fill="#3A57E8"/>
<path opacity="0.4" d="M10.949 8.94365C13.2851 8.94365 15.1583 7.05969 15.1583 4.71014C15.1583 2.35969 13.2851 0.476624 10.949 0.476624C8.61293 0.476624 6.73975 2.35969 6.73975 4.71014C6.73975 7.05969 8.61293 8.94365 10.949 8.94365" fill="#3A57E8"/>
<path opacity="0.4" d="M20.0879 5.69591C20.6923 3.31845 18.9203 1.18323 16.6639 1.18323C16.4186 1.18323 16.184 1.21024 15.9548 1.25617C15.9243 1.26338 15.8903 1.27869 15.8724 1.3057C15.8518 1.33992 15.867 1.38585 15.8894 1.41557C16.5672 2.37196 16.9567 3.53638 16.9567 4.78635C16.9567 5.98409 16.5995 7.10078 15.9727 8.02745C15.9082 8.12291 15.9655 8.25169 16.0792 8.2715C16.2368 8.29942 16.398 8.31383 16.5627 8.31833C18.2058 8.36156 19.6805 7.298 20.0879 5.69591" fill="#3A57E8"/>
<path d="M21.8093 11.2936C21.5084 10.6488 20.7823 10.2066 19.6782 9.98958C19.1571 9.8617 17.7468 9.68159 16.4351 9.7059C16.4154 9.7086 16.4046 9.72211 16.4028 9.73112C16.4002 9.74372 16.4055 9.76534 16.4315 9.77885C17.0377 10.0805 19.381 11.3926 19.0864 14.1601C19.0738 14.2798 19.1696 14.3834 19.2887 14.3654C19.8654 14.2825 21.349 13.9619 21.8093 12.9632C22.0636 12.4355 22.0636 11.8222 21.8093 11.2936" fill="#3A57E8"/>
<path opacity="0.4" d="M6.04483 1.25642C5.8165 1.20959 5.58101 1.18347 5.33567 1.18347C3.07926 1.18347 1.30726 3.31869 1.91255 5.69616C2.31906 7.29825 3.79379 8.3618 5.43685 8.31858C5.60161 8.31407 5.76368 8.29877 5.92037 8.27175C6.03409 8.25194 6.09139 8.12316 6.02692 8.0277C5.40014 7.10013 5.04288 5.98434 5.04288 4.7866C5.04288 3.53572 5.43327 2.37131 6.11109 1.41582C6.13258 1.3861 6.1487 1.34017 6.12721 1.30595C6.1093 1.27803 6.07617 1.26362 6.04483 1.25642" fill="#3A57E8"/>
<path d="M2.32156 9.98926C1.21752 10.2063 0.492248 10.6485 0.191392 11.2933C-0.0637974 11.8219 -0.0637974 12.4352 0.191392 12.9638C0.651629 13.9616 2.13531 14.2831 2.71195 14.3651C2.83104 14.3831 2.92595 14.2804 2.91342 14.1597C2.61883 11.3932 4.9621 10.0811 5.56918 9.77943C5.59425 9.76502 5.59962 9.74431 5.59694 9.7308C5.59515 9.7218 5.5853 9.70829 5.5656 9.70649C4.25294 9.68127 2.84358 9.86138 2.32156 9.98926" fill="#3A57E8"/>
</svg>
