<svg width="24" height="25" viewBox="0 0 24 25" fill="none" xmlns="http://www.w3.org/2000/svg">
<path opacity="0.4" d="M12.0866 22.4766C11.9627 22.4766 11.8389 22.4482 11.7271 22.3903L8.12605 20.5262C7.10422 19.9967 6.30487 19.4025 5.68069 18.7102C4.31455 17.1962 3.55446 15.2526 3.54238 13.2365L3.5001 6.60089C3.49507 5.83505 3.98937 5.14765 4.72832 4.88878L11.3406 2.58341C11.7332 2.44319 12.1711 2.44123 12.5708 2.57655L19.2082 4.80347C19.9512 5.05155 20.4535 5.73404 20.4576 6.4989L20.4999 13.1395C20.5129 15.1526 19.779 17.104 18.434 18.6347C17.8169 19.3368 17.0246 19.9398 16.0128 20.4792L12.4439 22.3854C12.3332 22.4452 12.2104 22.4756 12.0866 22.4766Z" fill="#8A92A6"/>
<path d="M11.3192 14.7975C11.1259 14.7985 10.9327 14.7289 10.7837 14.5857L8.86683 12.7422C8.57085 12.4559 8.56783 11.9911 8.86079 11.7028C9.15375 11.4135 9.63195 11.4106 9.92894 11.6959L11.3082 13.0217L14.6757 9.70142C14.9697 9.41214 15.4479 9.4092 15.7438 9.69455C16.0408 9.98088 16.0439 10.4467 15.7509 10.734L11.8518 14.5789C11.7048 14.724 11.5125 14.7966 11.3192 14.7975Z" fill="#8A92A6"/>
</svg>
