<svg width="45" height="46" viewBox="0 0 45 46" fill="none" xmlns="http://www.w3.org/2000/svg">
<path fill-rule="evenodd" clip-rule="evenodd" d="M2.5536 20.2865C1.50084 21.1857 1 22.1044 1 22.9999C1 23.8953 1.50084 24.814 2.5536 25.7132C3.60448 26.6108 5.15454 27.4417 7.11353 28.1493C11.0273 29.5632 16.4672 30.4474 22.5 30.4474C28.5328 30.4474 33.9727 29.5632 37.8865 28.1493C39.8455 27.4417 41.3955 26.6108 42.4464 25.7132C43.4992 24.814 44 23.8953 44 22.9999C44 22.1044 43.4992 21.1857 42.4464 20.2865C41.3955 19.389 39.8455 18.5581 37.8865 17.8504C33.9727 16.4365 28.5328 15.5524 22.5 15.5524C16.4672 15.5524 11.0273 16.4365 7.11353 17.8504C5.15454 18.5581 3.60448 19.389 2.5536 20.2865ZM6.77377 16.9099C10.8224 15.4473 16.3825 14.5524 22.5 14.5524C28.6175 14.5524 34.1776 15.4473 38.2262 16.9099C40.2485 17.6404 41.9202 18.522 43.0959 19.5261C44.2696 20.5286 45 21.7007 45 22.9999C45 24.2991 44.2696 25.4711 43.0959 26.4736C41.9202 27.4777 40.2485 28.3593 38.2262 29.0899C34.1776 30.5524 28.6175 31.4474 22.5 31.4474C16.3825 31.4474 10.8224 30.5524 6.77377 29.0899C4.75154 28.3593 3.07978 27.4777 1.90414 26.4736C0.730379 25.4711 0 24.2991 0 22.9999C0 21.7007 0.730379 20.5286 1.90414 19.5261C3.07978 18.522 4.75154 17.6404 6.77377 16.9099Z" fill="#61DAFB"/>
<path fill-rule="evenodd" clip-rule="evenodd" d="M15.0516 5.30961C13.7077 4.89825 12.6022 4.94077 11.7605 5.40056C10.9188 5.86035 10.3271 6.74487 10.0317 8.05175C9.73603 9.35947 9.75052 11.0413 10.0816 12.9962C10.7431 16.9029 12.6508 21.7958 15.6642 26.734C18.6776 31.6723 22.2025 35.6819 25.4476 38.1772C27.0715 39.4259 28.6036 40.2787 29.9485 40.6903C31.2924 41.1017 32.3979 41.0592 33.2396 40.5994C34.0813 40.1396 34.673 39.2551 34.9684 37.9482C35.264 36.6405 35.2496 34.9587 34.9185 33.0037C34.257 29.0971 32.3493 24.2042 29.3359 19.2659C26.3224 14.3277 22.7976 10.3181 19.5525 7.82272C17.9286 6.57402 16.3964 5.72123 15.0516 5.30961ZM20.1791 7.06457C23.5481 9.65519 27.1517 13.7692 30.2135 18.7865C33.2752 23.8039 35.239 28.8136 35.9258 32.8694C36.2689 34.8957 36.2978 36.71 35.966 38.1775C35.6341 39.6458 34.9276 40.8155 33.7605 41.453C32.5934 42.0905 31.1695 42.0846 29.6595 41.6224C28.1504 41.1605 26.5042 40.2297 24.821 38.9354C21.452 36.3448 17.8483 32.2308 14.7866 27.2134C11.7249 22.1961 9.7611 17.1863 9.07431 13.1305C8.73118 11.1043 8.70231 9.28993 9.03406 7.82247C9.366 6.35416 10.0725 5.18448 11.2396 4.54694C12.4067 3.90941 13.8306 3.91538 15.3405 4.37755C16.8496 4.83946 18.4959 5.77028 20.1791 7.06457Z" fill="#61DAFB"/>
<path fill-rule="evenodd" clip-rule="evenodd" d="M34.9684 8.05173C34.6729 6.74486 34.0813 5.86034 33.2396 5.40055C32.3978 4.94076 31.2924 4.89823 29.9484 5.30959C28.6036 5.72121 27.0714 6.574 25.4476 7.8227C22.2024 10.3181 18.6776 14.3277 15.6642 19.2659C12.6508 24.2041 10.7431 29.0971 10.0815 33.0037C9.7505 34.9586 9.73601 36.6405 10.0316 37.9482C10.3271 39.2551 10.9187 40.1396 11.7605 40.5994C12.6022 41.0592 13.7076 41.1017 15.0516 40.6903C16.3964 40.2787 17.9286 39.4259 19.5525 38.1772C22.7976 35.6819 26.3224 31.6723 29.3358 26.734C32.3492 21.7958 34.257 16.9029 34.9185 12.9962C35.2495 11.0413 35.264 9.35945 34.9684 8.05173ZM35.9257 13.1305C35.239 17.1863 33.2751 22.196 30.2134 27.2134C27.1517 32.2308 23.548 36.3447 20.1791 38.9354C18.4959 40.2297 16.8496 41.1605 15.3405 41.6224C13.8306 42.0846 12.4067 42.0905 11.2396 41.453C10.0725 40.8155 9.36597 39.6458 9.03403 38.1775C8.70229 36.71 8.73116 34.8957 9.07428 32.8694C9.76107 28.8136 11.7249 23.8039 14.7866 18.7865C17.8483 13.7691 21.452 9.65518 24.821 7.06456C26.5041 5.77026 28.1504 4.83944 29.6595 4.37754C31.1695 3.91537 32.5934 3.9094 33.7605 4.54693C34.9276 5.18446 35.6341 6.35415 35.966 7.82245C36.2977 9.28991 36.2689 11.1042 35.9257 13.1305Z" fill="#61DAFB"/>
</svg>
