<svg width="25" height="25" viewBox="0 0 25 25" fill="none" xmlns="http://www.w3.org/2000/svg">
<path opacity="0.4" d="M22.5 16.4402C22.5 19.2302 20.26 21.4902 17.47 21.5002H17.46H7.55C4.77 21.5002 2.5 19.2502 2.5 16.4602V16.4502C2.5 16.4502 2.506 12.0242 2.514 9.79824C2.515 9.38024 2.995 9.14624 3.322 9.40624C5.698 11.2912 9.947 14.7282 10 14.7732C10.71 15.3422 11.61 15.6632 12.53 15.6632C13.45 15.6632 14.35 15.3422 15.06 14.7622C15.113 14.7272 19.267 11.3932 21.679 9.47724C22.007 9.21624 22.489 9.45024 22.49 9.86724C22.5 12.0762 22.5 16.4402 22.5 16.4402Z" fill="#8A92A6"/>
<path d="M21.9761 6.17363C21.1101 4.54163 19.4061 3.49963 17.5301 3.49963H7.55013C5.67413 3.49963 3.97013 4.54163 3.10413 6.17363C2.91013 6.53863 3.00213 6.99363 3.32513 7.25163L10.7501 13.1906C11.2701 13.6106 11.9001 13.8196 12.5301 13.8196C12.5341 13.8196 12.5371 13.8196 12.5401 13.8196C12.5431 13.8196 12.5471 13.8196 12.5501 13.8196C13.1801 13.8196 13.8101 13.6106 14.3301 13.1906L21.7551 7.25163C22.0781 6.99363 22.1701 6.53863 21.9761 6.17363Z" fill="#8A92A6"/>
</svg>
