<svg width="25" height="25" viewBox="0 0 25 25" fill="none" xmlns="http://www.w3.org/2000/svg">
<path d="M20.2695 12.1453C19.539 11.2923 19.2071 10.5531 19.2071 9.29716V8.87013C19.2071 7.23354 18.8304 6.17907 18.0115 5.12459C16.7493 3.48699 14.6244 2.5 12.5442 2.5H12.4558C10.4194 2.5 8.36106 3.44167 7.077 5.0128C6.21333 6.08842 5.79293 7.18822 5.79293 8.87013V9.29716C5.79293 10.5531 5.48284 11.2923 4.73049 12.1453C4.17691 12.7738 4 13.5815 4 14.4557C4 15.3309 4.28723 16.1598 4.86367 16.8336C5.61602 17.6413 6.67846 18.1569 7.76375 18.2466C9.33505 18.4258 10.9063 18.4933 12.5005 18.4933C14.0937 18.4933 15.665 18.3805 17.2372 18.2466C18.3215 18.1569 19.384 17.6413 20.1363 16.8336C20.7118 16.1598 21 15.3309 21 14.4557C21 13.5815 20.8231 12.7738 20.2695 12.1453Z" fill="#8A92A6"/>
<path opacity="0.4" d="M14.5088 19.7284C14.0088 19.6216 10.9627 19.6216 10.4627 19.7284C10.0354 19.8271 9.57324 20.0567 9.57324 20.5603C9.59809 21.0407 9.87935 21.4647 10.2689 21.7336L10.268 21.7346C10.7718 22.1274 11.3632 22.3771 11.9824 22.4668C12.3123 22.5121 12.6482 22.5101 12.9901 22.4668C13.6083 22.3771 14.1997 22.1274 14.7036 21.7346L14.7026 21.7336C15.0922 21.4647 15.3734 21.0407 15.3983 20.5603C15.3983 20.0567 14.9361 19.8271 14.5088 19.7284Z" fill="#8A92A6"/>
</svg>
