<svg width="20" height="21" viewBox="0 0 20 21" fill="none" xmlns="http://www.w3.org/2000/svg">
<path opacity="0.4" d="M11.3051 4.35905V4.5421C10.8144 4.53246 10.3237 4.53246 9.83306 4.53246V4.36869C9.83306 3.70395 9.27368 3.16446 8.60636 3.16446H7.63482C6.52589 3.16446 5.62305 2.27815 5.62305 1.19916C5.62305 0.804173 5.95671 0.476624 6.35906 0.476624C6.77123 0.476624 7.09508 0.804173 7.09508 1.19916C7.09508 1.48817 7.34042 1.71939 7.63482 1.71939H8.60636C10.0882 1.72902 11.2953 2.91398 11.3051 4.35905Z" fill="#8A92A6"/>
<path fill-rule="evenodd" clip-rule="evenodd" d="M13.164 4.5593C13.4791 4.56362 13.7949 4.56795 14.1119 4.57119C17.5172 4.57119 20 6.99891 20 10.3515V14.6578C20 18.0104 17.5172 20.4381 14.1119 20.4381C12.7478 20.467 11.3837 20.4766 10.0098 20.4766C8.63592 20.4766 7.25221 20.467 5.88813 20.4381C2.48283 20.4381 0 18.0104 0 14.6578V10.3515C0 6.99891 2.48283 4.57119 5.89794 4.57119C7.18351 4.55192 8.49853 4.53265 9.83317 4.53265C10.3238 4.53265 10.8145 4.53265 11.3052 4.54229C11.9238 4.54229 12.5425 4.55077 13.164 4.5593ZM8.85182 13.2224H7.82139V14.2435C7.82139 14.6385 7.48773 14.9661 7.08538 14.9661C6.67321 14.9661 6.34936 14.6385 6.34936 14.2435V13.2224H5.30913C4.90677 13.2224 4.57311 12.9044 4.57311 12.4998C4.57311 12.1048 4.90677 11.7773 5.30913 11.7773H6.34936V10.7657C6.34936 10.3707 6.67321 10.0432 7.08538 10.0432C7.48773 10.0432 7.82139 10.3707 7.82139 10.7657V11.7773H8.85182C9.25417 11.7773 9.58783 12.1048 9.58783 12.4998C9.58783 12.9044 9.25417 13.2224 8.85182 13.2224ZM13.0226 11.5942H13.1207C13.5231 11.5942 13.8567 11.2763 13.8567 10.8717C13.8567 10.4767 13.5231 10.1492 13.1207 10.1492H13.0226C12.6104 10.1492 12.2866 10.4767 12.2866 10.8717C12.2866 11.2763 12.6104 11.5942 13.0226 11.5942ZM14.7007 14.9083H14.7988C15.2012 14.9083 15.5348 14.5904 15.5348 14.1857C15.5348 13.7908 15.2012 13.4632 14.7988 13.4632H14.7007C14.2885 13.4632 13.9647 13.7908 13.9647 14.1857C13.9647 14.5904 14.2885 14.9083 14.7007 14.9083Z" fill="#8A92A6"/>
</svg>
